<svg width="28" height="26" viewBox="0 0 28 26" fill="none" xmlns="http://www.w3.org/2000/svg">
<path d="M27.8392 0H27.0366C25.7269 0 24.5614 0.599219 23.8286 1.52344H23.8264C22.5149 1.52344 21.3487 2.12367 20.6162 3.04941V3.04688C18.4033 3.04688 16.6034 4.75556 16.6034 6.85547V10.5192L14.1422 12.8229L11.6811 10.5192V6.85547C11.6811 4.75556 9.88121 3.04688 7.66829 3.04688V3.04941C6.93577 2.12367 5.76955 1.52344 4.45807 1.52344H4.45593C3.72309 0.599219 2.55762 0 1.24785 0H0.44529V11.9651L6.13172 18.3828H5.26062V26H23.0239V18.3828H22.1528L27.8392 11.9651V0ZM10.076 6.85547V9.16398C9.58629 8.88354 9.03894 8.70605 8.47085 8.64348V5.33203C8.47085 5.11062 8.44955 4.89328 8.41146 4.68203C9.37629 4.98012 10.076 5.84137 10.076 6.85547ZM5.26062 3.17738C6.1948 3.49182 6.86574 4.3388 6.86574 5.33203V8.77089C6.48364 8.87711 6.12044 9.03698 5.78817 9.24518L5.26062 8.74504V3.17738ZM13.3397 24.4766H6.86574V19.9062H13.3397V24.4766ZM13.3397 18.3828H8.22901L2.0504 11.4101V1.654C2.98458 1.96828 3.65551 2.81531 3.65551 3.80859V9.37625L8.70573 14.1695L9.84108 13.0925L6.96252 10.3604C7.28248 10.2145 7.63507 10.138 8.0006 10.138C8.64372 10.138 9.24831 10.3756 9.70309 10.8073L13.3397 14.2112V18.3828ZM21.4187 5.33203C21.4187 4.3388 22.0897 3.49182 23.0239 3.17738V8.74504L22.4963 9.24518C22.164 9.03698 21.8008 8.87711 21.4187 8.77089V5.33203ZM18.2085 6.85547C18.2085 5.84142 18.9082 4.98012 19.873 4.68203C19.8339 4.89672 19.8141 5.11416 19.8136 5.33203V8.64348C19.2455 8.70605 18.6982 8.88354 18.2085 9.16398V6.85547ZM21.4187 24.4766H14.9448V19.9062H21.4187V24.4766ZM26.2341 11.4101L20.0555 18.3828H14.9448V14.2112L18.5814 10.8073C19.0362 10.3756 19.6408 10.138 20.2839 10.138C20.6494 10.138 21.002 10.2145 21.322 10.3604L18.4435 13.0924L19.5787 14.1695L24.629 9.3763V3.80859C24.629 2.81536 25.2999 1.96838 26.2341 1.65395V11.4101Z" fill="#8789A3"/>
</svg>
