<svg width="20" height="28" viewBox="0 0 20 28" fill="none" xmlns="http://www.w3.org/2000/svg">
<path d="M17.6369 22.8063V21.8247C17.6369 20.2612 16.7213 18.8556 15.2479 18.1562L12.4509 16.8289V11.8714C12.4509 10.5645 11.8107 9.36775 10.7396 8.60168C10.7955 8.31288 10.9816 8.06995 11.2236 7.99356C12.9919 7.43509 14.1795 5.87097 14.1795 4.10128C14.1795 1.56624 11.793 -0.354217 9.13824 0.0555016C7.08526 0.372033 5.53633 2.18722 5.53633 4.27688V7.04954C3.38212 9.21287 2.07917 12.144 2.07917 15.3041V19.9374C2.07917 21.1653 2.43998 22.3404 3.11344 23.3542C1.49842 23.9489 0.350586 25.4397 0.350586 27.1798V28.0002H16.7723C18.202 28.0002 19.3655 26.896 19.3655 25.5392C19.366 24.9776 19.2054 24.4265 18.9008 23.9451C18.5963 23.4636 18.1593 23.0699 17.6369 22.8063ZM14.6422 19.7105C15.4276 20.1529 15.9081 20.9476 15.9081 21.8247V22.2136L13.9502 21.594L14.6422 19.7105ZM7.26515 4.27688C7.26515 2.98298 8.18976 1.86402 9.41596 1.67474C11.0745 1.41842 12.4509 2.62986 12.4509 4.10128C12.4515 4.61807 12.2806 5.12192 11.9623 5.54123C11.644 5.96054 11.1946 6.27399 10.6779 6.43704C9.99573 6.6524 9.46546 7.15399 9.19424 7.79121L7.26515 6.87563V4.27688ZM3.80775 15.3041C3.80775 12.7274 4.79091 10.2936 6.58812 8.38895L9.2888 9.67028C10.1731 10.0896 10.7223 10.9336 10.7223 11.8714V17.8428L13.0854 18.9645L12.3102 21.0756L8.99367 20.026V12.3047H7.26509V21.2085L9.8832 22.0369C8.73041 23.2515 6.90543 23.7405 5.20393 23.2024L5.14919 23.1849C4.28311 22.2983 3.80775 21.1531 3.80775 19.9373V15.3041ZM16.7723 26.3595H2.22725C2.57009 25.4413 3.47194 24.7725 4.5424 24.7221C4.61915 24.7405 5.42985 25.0607 6.61174 25.0607C8.58273 25.0607 10.4653 24.1573 11.6269 22.5883L16.588 24.1577C16.8936 24.2542 17.1594 24.4396 17.3477 24.6875C17.536 24.9355 17.6372 25.2335 17.6369 25.5392C17.6369 25.9915 17.2491 26.3595 16.7724 26.3595H16.7723Z" fill="#8789A3"/>
</svg>
