<svg width="31" height="24" viewBox="0 0 31 24" fill="none" xmlns="http://www.w3.org/2000/svg">
<path d="M24.3799 0.217578L21.2514 1.40539L20.6399 0.078125L19.2518 0.220859C17.859 0.363539 16.6462 0.84118 15.4863 1.71044C14.3263 0.839047 13.1219 0.361844 11.7483 0.220805L10.3598 0.078125L9.74871 1.40539L6.61946 0.217578L0.749481 13.2173L4.25458 14.486V23.9215L15.4856 18.5918L26.7167 23.9215V14.4947L30.2506 13.2177L24.3799 0.217578ZM5.98247 21.2681V15.1119L13.3409 17.7762L5.98247 21.2681ZM14.6218 16.4844L3.04636 12.2933L7.54338 2.33415L9.05566 2.90864L5.19292 11.2935L14.6218 14.7352L14.6218 16.4844ZM14.6218 12.9778L8.11462 10.6027C9.22627 10.0635 10.5463 9.99363 11.7512 10.4589L14.6218 11.6516L14.6218 12.9778ZM14.6218 9.86145L12.4147 8.94455C11.0474 8.41327 9.57245 8.37673 8.23395 8.78563L11.4349 1.83835C11.6128 1.88134 12.9839 1.83988 14.6218 3.159V9.86145ZM16.3495 3.16004C17.9568 1.87215 19.474 1.86039 19.5651 1.83841L22.7529 8.75867C21.4916 8.37717 20.1202 8.42863 18.7916 8.94455L16.3495 9.89366V3.16004ZM16.3495 11.6659L19.4458 10.4626C20.6166 10.0073 21.8384 10.0669 22.8987 10.5961L16.3495 12.9795V11.6659ZM24.9888 21.2681L17.6322 17.7768L24.9888 15.1188V21.2681ZM16.3495 16.4855V14.7356L25.8071 11.2941L21.9437 2.90864L23.4562 2.3342L27.9533 12.2929L16.3495 16.4855Z" fill="#8789A3"/>
</svg>
