<svg width="15" height="16" viewBox="0 0 15 16" fill="none" xmlns="http://www.w3.org/2000/svg">
<path d="M1.20837 5.59375C1.20837 3.32512 1.20837 2.1908 1.91315 1.48602C2.61792 0.78125 3.75224 0.78125 6.02087 0.78125H9.22921C11.4978 0.78125 12.6322 0.78125 13.3369 1.48602C14.0417 2.1908 14.0417 3.32512 14.0417 5.59375V11.0701C14.0417 13.2223 14.0417 14.2984 13.3645 14.6275C12.6873 14.9567 11.8412 14.2918 10.1488 12.9621L9.60722 12.5366C8.65565 11.7889 8.17986 11.4151 7.62504 11.4151C7.07022 11.4151 6.59443 11.7889 5.64286 12.5366L5.10126 12.9621C3.40893 14.2918 2.56276 14.9567 1.88557 14.6275C1.20837 14.2984 1.20837 13.2223 1.20837 11.0701V5.59375Z" fill="#F3F3F3" fill-opacity="0.4" stroke="#F3F3F3" stroke-width="1.3125"/>
</svg>
