<svg width="19" height="18" viewBox="0 0 19 18" fill="none" xmlns="http://www.w3.org/2000/svg">
<path d="M10.655 1.025C10.7985 0.922371 10.9663 0.859174 11.1419 0.841718C11.3174 0.824262 11.4944 0.853158 11.6553 0.925522C11.8162 0.997885 11.9553 1.11118 12.0586 1.2541C12.162 1.39702 12.2261 1.56457 12.2445 1.74L12.25 1.8445V16.1555C12.2501 16.3319 12.2038 16.5052 12.116 16.6582C12.0281 16.8111 11.9016 16.9384 11.7492 17.0271C11.5967 17.1159 11.4237 17.1632 11.2473 17.1642C11.0709 17.1651 10.8973 17.1198 10.7439 17.0328L10.6559 16.9759L4.62333 12.6667H2.16667C1.70414 12.6668 1.25865 12.4921 0.919496 12.1776C0.580347 11.8631 0.372605 11.4321 0.337915 10.9708L0.333332 10.8333V7.16667C0.333417 6.7043 0.508206 6.25903 0.822683 5.92008C1.13716 5.58112 1.5681 5.37351 2.02917 5.33883L2.16667 5.33333H4.62333L10.655 1.025ZM14.6205 6.40767L15.9167 7.70383L17.2128 6.40767C17.2974 6.32012 17.3985 6.25028 17.5104 6.20224C17.6222 6.1542 17.7425 6.12891 17.8642 6.12785C17.9859 6.1268 18.1066 6.14999 18.2193 6.19608C18.3319 6.24217 18.4343 6.31024 18.5204 6.39631C18.6064 6.48237 18.6745 6.58472 18.7206 6.69738C18.7667 6.81003 18.7899 6.93074 18.7888 7.05245C18.7878 7.17417 18.7625 7.29445 18.7144 7.40629C18.6664 7.51812 18.5965 7.61927 18.509 7.70383L17.2128 9L18.509 10.2962C18.681 10.468 18.7777 10.7012 18.7778 10.9444C18.7779 11.1875 18.6813 11.4208 18.5095 11.5928C18.3376 11.7648 18.1044 11.8615 17.8612 11.8616C17.6181 11.8616 17.3848 11.7651 17.2128 11.5933L15.9167 10.2962L14.6205 11.5933C14.4485 11.7651 14.2153 11.8616 13.9721 11.8616C13.7289 11.8615 13.4958 11.7648 13.3239 11.5928C13.152 11.4208 13.0555 11.1875 13.0556 10.9444C13.0556 10.7012 13.1523 10.468 13.3243 10.2962L14.6205 9L13.3243 7.70383C13.2368 7.61927 13.1669 7.51812 13.1189 7.40629C13.0709 7.29445 13.0456 7.17417 13.0445 7.05245C13.0435 6.93074 13.0667 6.81003 13.1127 6.69738C13.1588 6.58472 13.2269 6.48237 13.313 6.39631C13.399 6.31024 13.5014 6.24217 13.614 6.19608C13.7267 6.14999 13.8474 6.1268 13.9691 6.12785C14.0908 6.12891 14.2111 6.1542 14.323 6.20224C14.4348 6.25028 14.5359 6.32012 14.6205 6.40767Z" fill="#1E1E1E" fill-opacity="0.35"/>
</svg>
