<svg width="21" height="21" viewBox="0 0 21 21" fill="none" xmlns="http://www.w3.org/2000/svg">
<path d="M10.5 0.0337524C16.023 0.0337524 20.5 4.51075 20.5 10.0338C20.5 15.5568 16.023 20.0338 10.5 20.0338C4.977 20.0338 0.5 15.5568 0.5 10.0338C0.5 4.51075 4.977 0.0337524 10.5 0.0337524ZM10.5 2.03375C8.37827 2.03375 6.34344 2.87661 4.84315 4.3769C3.34285 5.87719 2.5 7.91202 2.5 10.0338C2.5 12.1555 3.34285 14.1903 4.84315 15.6906C6.34344 17.1909 8.37827 18.0338 10.5 18.0338C12.6217 18.0338 14.6566 17.1909 16.1569 15.6906C17.6571 14.1903 18.5 12.1555 18.5 10.0338C18.5 7.91202 17.6571 5.87719 16.1569 4.3769C14.6566 2.87661 12.6217 2.03375 10.5 2.03375ZM10.5 4.03375C10.7449 4.03378 10.9813 4.12371 11.1644 4.28647C11.3474 4.44923 11.4643 4.6735 11.493 4.91675L11.5 5.03375V9.61975L14.207 12.3268C14.3863 12.5067 14.4905 12.7482 14.4982 13.0021C14.506 13.2561 14.4168 13.5035 14.2488 13.694C14.0807 13.8846 13.8464 14.0041 13.5935 14.0282C13.3406 14.0522 13.088 13.9792 12.887 13.8238L12.793 13.7408L9.793 10.7408C9.63758 10.5852 9.53776 10.3828 9.509 10.1648L9.5 10.0338V5.03375C9.5 4.76854 9.60536 4.51418 9.79289 4.32665C9.98043 4.13911 10.2348 4.03375 10.5 4.03375Z" fill="#B121BF"/>
</svg>
