<svg width="22" height="21" viewBox="0 0 22 21" fill="none" xmlns="http://www.w3.org/2000/svg">
<path fill-rule="evenodd" clip-rule="evenodd" d="M4.75333 0.733333C4.75333 0.57774 4.69152 0.428519 4.5815 0.318497C4.47148 0.208476 4.32226 0.146667 4.16667 0.146667C4.01107 0.146667 3.86185 0.208476 3.75183 0.318497C3.64181 0.428519 3.58 0.57774 3.58 0.733333V1.61333H2.7C2.54441 1.61333 2.39519 1.67514 2.28516 1.78516C2.17514 1.89519 2.11333 2.04441 2.11333 2.2C2.11333 2.35559 2.17514 2.50481 2.28516 2.61484C2.39519 2.72486 2.54441 2.78667 2.7 2.78667H3.58V3.66667C3.58 3.74371 3.59518 3.82 3.62466 3.89117C3.65414 3.96235 3.69735 4.02703 3.75183 4.0815C3.80631 4.13598 3.87098 4.17919 3.94216 4.20868C4.01334 4.23816 4.08963 4.25333 4.16667 4.25333C4.24371 4.25333 4.32 4.23816 4.39118 4.20868C4.46235 4.17919 4.52703 4.13598 4.5815 4.0815C4.63598 4.02703 4.67919 3.96235 4.70868 3.89117C4.73816 3.82 4.75333 3.74371 4.75333 3.66667V2.78667H5.63333C5.78893 2.78667 5.93815 2.72486 6.04817 2.61484C6.15819 2.50481 6.22 2.35559 6.22 2.2C6.22 2.04441 6.15819 1.89519 6.04817 1.78516C5.93815 1.67514 5.78893 1.61333 5.63333 1.61333H4.75333V0.733333ZM9.15333 5.13333C9.15333 5.05629 9.13816 4.98 9.10868 4.90883C9.07919 4.83765 9.03598 4.77297 8.9815 4.7185C8.92703 4.66402 8.86235 4.62081 8.79118 4.59132C8.72 4.56184 8.64371 4.54667 8.56667 4.54667C8.48963 4.54667 8.41334 4.56184 8.34216 4.59132C8.27098 4.62081 8.20631 4.66402 8.15183 4.7185C8.09735 4.77297 8.05414 4.83765 8.02466 4.90883C7.99518 4.98 7.98 5.05629 7.98 5.13333V6.01333H7.1C7.02296 6.01333 6.94667 6.02851 6.87549 6.05799C6.80432 6.08747 6.73964 6.13069 6.68517 6.18516C6.63069 6.23964 6.58747 6.30432 6.55799 6.37549C6.52851 6.44667 6.51333 6.52296 6.51333 6.6C6.51333 6.67704 6.52851 6.75333 6.55799 6.82451C6.58747 6.89569 6.63069 6.96036 6.68517 7.01484C6.73964 7.06931 6.80432 7.11253 6.87549 7.14201C6.94667 7.17149 7.02296 7.18667 7.1 7.18667H7.98V8.06667C7.98 8.14371 7.99518 8.22 8.02466 8.29117C8.05414 8.36235 8.09735 8.42703 8.15183 8.4815C8.20631 8.53598 8.27098 8.57919 8.34216 8.60868C8.41334 8.63816 8.48963 8.65333 8.56667 8.65333C8.64371 8.65333 8.72 8.63816 8.79118 8.60868C8.86235 8.57919 8.92703 8.53598 8.9815 8.4815C9.03598 8.42703 9.07919 8.36235 9.10868 8.29117C9.13816 8.22 9.15333 8.14371 9.15333 8.06667V7.18667H10.0333C10.1889 7.18667 10.3381 7.12486 10.4482 7.01484C10.5582 6.90481 10.62 6.75559 10.62 6.6C10.62 6.44441 10.5582 6.29519 10.4482 6.18516C10.3381 6.07514 10.1889 6.01333 10.0333 6.01333H9.15333V5.13333ZM3.28667 9.53333C3.28667 9.37774 3.22486 9.22852 3.11484 9.1185C3.00482 9.00848 2.85559 8.94667 2.7 8.94667C2.54441 8.94667 2.39519 9.00848 2.28516 9.1185C2.17514 9.22852 2.11333 9.37774 2.11333 9.53333V10.4133H1.23333C1.07774 10.4133 0.92852 10.4751 0.818498 10.5852C0.708477 10.6952 0.646667 10.8444 0.646667 11C0.646667 11.1556 0.708477 11.3048 0.818498 11.4148C0.92852 11.5249 1.07774 11.5867 1.23333 11.5867H2.11333V12.4667C2.11333 12.6223 2.17514 12.7715 2.28516 12.8815C2.39519 12.9915 2.54441 13.0533 2.7 13.0533C2.85559 13.0533 3.00482 12.9915 3.11484 12.8815C3.22486 12.7715 3.28667 12.6223 3.28667 12.4667V11.5867H4.16667C4.32226 11.5867 4.47148 11.5249 4.5815 11.4148C4.69152 11.3048 4.75333 11.1556 4.75333 11C4.75333 10.8444 4.69152 10.6952 4.5815 10.5852C4.47148 10.4751 4.32226 10.4133 4.16667 10.4133H3.28667V9.53333ZM13.0312 1.44027L12.5941 1.3816C12.2817 1.3464 12.0955 1.71013 12.2759 1.96827C13.3998 3.5863 14.0007 5.50994 13.9977 7.48C13.9969 9.95636 13.0473 12.3383 11.3442 14.136C9.64116 15.9338 7.31403 17.0107 4.84133 17.1453C4.52747 17.1629 4.35293 17.5325 4.57293 17.7569C4.67341 17.8599 4.7761 17.9606 4.88093 18.0591L4.98653 18.1559L5.36787 18.4873L5.6436 18.7044L5.82107 18.8364L6.09533 19.0285L6.35347 19.1972C6.52947 19.3087 6.71133 19.4157 6.89613 19.5155L7.28333 19.7135L7.66467 19.8895L8.10907 20.0684L8.46694 20.1945C8.99419 20.368 9.53544 20.4956 10.0847 20.5759L10.5496 20.6345L10.9412 20.6639C12.349 20.746 13.7578 20.5196 15.069 20.0004C16.3802 19.4812 17.5621 18.6817 18.5321 17.658C19.502 16.6343 20.2365 15.411 20.6843 14.0737C21.1321 12.7365 21.2822 11.3175 21.1243 9.91613L21.07 9.50987C20.9604 8.79921 20.7715 8.10308 20.5068 7.43453L20.3411 7.04147L20.2281 6.798L20.1196 6.58093C19.8871 6.12889 19.6193 5.69587 19.3188 5.28587L19.0944 4.99253L18.8025 4.64053L18.5635 4.37653L18.3875 4.19467L18.1528 3.96293L17.8257 3.6696L17.3564 3.28827L16.9971 3.02867L16.5688 2.75L16.098 2.4772L15.6169 2.2352L15.4512 2.15893L15.0992 2.0108L14.6944 1.85827L14.3248 1.738L13.8481 1.606L13.4595 1.518L13.0312 1.44027ZM15.7592 7.77333C15.7603 6.31719 15.4753 4.87503 14.9203 3.5288C16.8936 4.45225 18.4192 6.12177 19.1616 8.17009C19.904 10.2184 19.8022 12.4777 18.8788 14.4511C17.9554 16.4244 16.2858 17.95 14.2375 18.6924C12.1892 19.4348 9.92985 19.333 7.95653 18.4096C10.0719 17.7431 11.9407 16.4615 13.3245 14.7283C13.461 14.9162 13.6535 15.056 13.8744 15.1276C14.0953 15.1993 14.3332 15.1991 14.554 15.127C14.7748 15.055 14.9671 14.9149 15.1032 14.7268C15.2394 14.5387 15.3124 14.3122 15.3119 14.08C15.3121 13.8304 15.2274 13.5882 15.0717 13.3931C14.9161 13.198 14.6987 13.0616 14.4553 13.0064C14.5463 12.8363 14.6343 12.6617 14.7164 12.4857C14.9576 12.6349 15.2301 12.7262 15.5125 12.7522C15.7949 12.7783 16.0795 12.7385 16.3439 12.6359C16.6084 12.5334 16.8454 12.3709 17.0364 12.1612C17.2273 11.9515 17.3671 11.7004 17.4446 11.4276C17.522 11.1548 17.5352 10.8677 17.4829 10.589C17.4307 10.3102 17.3145 10.0474 17.1435 9.82112C16.9725 9.59488 16.7513 9.4114 16.4973 9.28512C16.2434 9.15883 15.9636 9.09318 15.68 9.09333C15.7299 8.66067 15.7563 8.22067 15.7563 7.77333H15.7592Z" fill="#1E1E1E" fill-opacity="0.5"/>
</svg>
