<svg width="20" height="14" viewBox="0 0 20 14" fill="none" xmlns="http://www.w3.org/2000/svg">
<path d="M10 2.18136C11.0533 2.18121 12.0881 2.45834 13.0003 2.98489C13.9125 3.51144 14.6701 4.26885 15.1968 5.18099C15.7235 6.09313 16.0008 7.12786 16.0009 8.18115C16.0009 9.23444 15.7237 10.2692 15.197 11.1814H18C18.2652 11.1814 18.5196 11.2867 18.7071 11.4743C18.8946 11.6618 19 11.9161 19 12.1814C19 12.4466 18.8946 12.7009 18.7071 12.8885C18.5196 13.076 18.2652 13.1814 18 13.1814H2.00001C1.73479 13.1814 1.48044 13.076 1.2929 12.8885C1.10536 12.7009 1.00001 12.4466 1.00001 12.1814C1.00001 11.9161 1.10536 11.6618 1.2929 11.4743C1.48044 11.2867 1.73479 11.1814 2.00001 11.1814H4.80301C4.27636 10.2692 3.99912 9.23444 3.99916 8.18115C3.9992 7.12786 4.27651 6.09313 4.80322 5.18099C5.32993 4.26885 6.08748 3.51144 6.99971 2.98489C7.91194 2.45834 8.94671 2.18121 10 2.18136ZM10 4.18136C9.20637 4.1813 8.43065 4.41733 7.77155 4.85942C7.11244 5.30151 6.59975 5.92967 6.29868 6.66399C5.99762 7.39831 5.92181 8.20559 6.08089 8.98312C6.23996 9.76065 6.62674 10.4733 7.19201 11.0304L7.35501 11.1804H12.645C13.254 10.6429 13.6849 9.93283 13.8804 9.14453C14.076 8.35623 14.027 7.52707 13.7398 6.76732C13.4527 6.00757 12.9411 5.35322 12.2731 4.89129C11.605 4.42936 10.8122 4.18174 10 4.18136ZM19 7.18136C19.2549 7.18164 19.5 7.27924 19.6854 7.45421C19.8707 7.62918 19.9822 7.86831 19.9972 8.12275C20.0121 8.3772 19.9293 8.62774 19.7657 8.82319C19.6022 9.01864 19.3701 9.14426 19.117 9.17436L19 9.18136H18C17.7451 9.18108 17.5 9.08348 17.3146 8.90851C17.1293 8.73354 17.0178 8.49441 17.0028 8.23996C16.9879 7.98552 17.0707 7.73498 17.2343 7.53953C17.3979 7.34407 17.6299 7.21846 17.883 7.18836L18 7.18136H19ZM2.00001 7.18136C2.25489 7.18164 2.50004 7.27924 2.68537 7.45421C2.87071 7.62918 2.98224 7.86831 2.99718 8.12275C3.01212 8.3772 2.92933 8.62774 2.76574 8.82319C2.60215 9.01864 2.3701 9.14426 2.11701 9.17436L2.00001 9.18136H1.00001C0.745126 9.18108 0.499974 9.08348 0.314638 8.90851C0.129302 8.73354 0.017771 8.49441 0.00283393 8.23996C-0.0121032 7.98552 0.0706806 7.73498 0.234271 7.53953C0.397861 7.34407 0.62991 7.21846 0.883006 7.18836L1.00001 7.18136H2.00001ZM4.34301 1.11036L5.05001 1.81736C5.23216 2.00596 5.33296 2.25856 5.33068 2.52076C5.3284 2.78296 5.22323 3.03377 5.03782 3.21918C4.85242 3.40459 4.6016 3.50976 4.33941 3.51203C4.07721 3.51431 3.82461 3.41352 3.63601 3.23136L2.92901 2.52436C2.74685 2.33576 2.64605 2.08315 2.64833 1.82096C2.65061 1.55876 2.75578 1.30795 2.94119 1.12254C3.1266 0.937132 3.37741 0.831964 3.6396 0.829685C3.9018 0.827407 4.1544 0.928201 4.34301 1.11036ZM15.657 1.11036C15.837 0.931011 16.0784 0.826885 16.3324 0.819131C16.5863 0.811376 16.8337 0.900575 17.0243 1.06861C17.2148 1.23664 17.3343 1.47091 17.3584 1.72383C17.3825 1.97676 17.3094 2.22937 17.154 2.43036L17.071 2.52436L16.364 3.23136C16.184 3.41071 15.9426 3.51483 15.6886 3.52259C15.4347 3.53034 15.1873 3.44114 14.9967 3.27311C14.8062 3.10508 14.6867 2.87081 14.6626 2.61788C14.6385 2.36496 14.7116 2.11235 14.867 1.91136L14.95 1.81736L15.657 1.11036Z" fill="#1E1E1E" fill-opacity="0.5"/>
</svg>
