<svg width="20" height="18" viewBox="0 0 20 18" fill="none" xmlns="http://www.w3.org/2000/svg">
<path d="M12.7969 4.07813C12.287 4.07818 11.7788 4.13736 11.2826 4.2545C11.135 4.03883 10.9704 3.8353 10.7904 3.64582L11.4114 2.75825C11.5612 2.54438 11.6199 2.27978 11.5746 2.02264C11.5293 1.7655 11.3837 1.53688 11.1698 1.38709C10.9559 1.2373 10.6913 1.1786 10.4342 1.22391C10.177 1.26922 9.94843 1.41481 9.79864 1.62868L9.17684 2.51954C8.6001 2.267 7.98017 2.12775 7.35083 2.10938L7.16215 1.04297C7.11227 0.790212 6.96529 0.567081 6.75275 0.421473C6.54021 0.275865 6.27905 0.219385 6.02533 0.264159C5.77162 0.308932 5.54557 0.451388 5.39571 0.660951C5.24584 0.870513 5.18411 1.13048 5.22375 1.38504L5.41243 2.45145C4.82747 2.68392 4.29253 3.02643 3.83661 3.46043L2.94575 2.83618C2.73189 2.68639 2.46728 2.62769 2.21014 2.67299C1.953 2.7183 1.72439 2.8639 1.57459 3.07776C1.4248 3.29162 1.36611 3.55623 1.41141 3.81337C1.45672 4.07051 1.60231 4.29912 1.81618 4.44891L2.70704 5.07153C2.45381 5.64776 2.31453 6.26756 2.29688 6.89672L1.23047 7.08539C0.987858 7.1279 0.769992 7.25981 0.619882 7.45509C0.469772 7.65038 0.398328 7.89484 0.419653 8.14023C0.440977 8.38561 0.55352 8.61409 0.735066 8.78055C0.916612 8.94701 1.15397 9.03936 1.40028 9.03938C1.45801 9.03928 1.51564 9.03434 1.57254 9.02461L2.63895 8.83594C2.71947 9.04033 2.81375 9.23903 2.92114 9.43067C2.29837 10.0804 1.88018 10.8988 1.71849 11.7841C1.55681 12.6695 1.65876 13.5828 2.01169 14.4108C2.36461 15.2387 2.95296 15.9447 3.70367 16.4411C4.45438 16.9375 5.33438 17.2025 6.23438 17.2031H12.7969C14.5374 17.2031 16.2066 16.5117 17.4373 15.281C18.668 14.0503 19.3594 12.3811 19.3594 10.6406C19.3594 8.90015 18.668 7.23095 17.4373 6.00024C16.2066 4.76953 14.5374 4.07813 12.7969 4.07813ZM7.21876 4.07813C7.62657 4.07846 8.0299 4.16325 8.40333 4.32716C8.77676 4.49107 9.11219 4.73055 9.38848 5.03051C8.22076 5.73874 7.3018 6.79214 6.75856 8.04516C6.58453 8.02542 6.40952 8.01556 6.23438 8.01563C5.66377 8.01557 5.09816 8.12212 4.56668 8.32981C4.34627 7.8796 4.24407 7.3807 4.26973 6.88008C4.29539 6.37947 4.44806 5.89363 4.71336 5.46832C4.97865 5.04301 5.34785 4.69223 5.78616 4.44902C6.22448 4.2058 6.71749 4.07817 7.21876 4.07813ZM12.7969 15.2344H6.23438C5.53819 15.2344 4.87051 14.9578 4.37822 14.4655C3.88594 13.9733 3.60938 13.3056 3.60938 12.6094C3.60938 11.9132 3.88594 11.2455 4.37822 10.7532C4.87051 10.2609 5.53819 9.98438 6.23438 9.98438H6.25735C6.24833 10.0746 6.24094 10.1648 6.23602 10.2551C6.22079 10.5162 6.3099 10.7726 6.48373 10.968C6.65757 11.1633 6.9019 11.2816 7.16297 11.2969C7.42405 11.3121 7.68048 11.223 7.87585 11.0492C8.07123 10.8753 8.18954 10.631 8.20477 10.3699C8.22213 10.0651 8.26995 9.76285 8.34751 9.46758L8.35981 9.42246C8.58598 8.59558 9.03877 7.84838 9.66708 7.26518C10.2954 6.68199 11.0742 6.28604 11.9156 6.12201C12.757 5.95797 13.6276 6.0324 14.4289 6.33688C15.2303 6.64136 15.9306 7.16377 16.4508 7.84516C16.971 8.52654 17.2903 9.33976 17.3729 10.193C17.4554 11.0463 17.2978 11.9057 16.9178 12.6741C16.5378 13.4425 15.9506 14.0895 15.2224 14.5419C14.4943 14.9943 13.6541 15.2341 12.7969 15.2344Z" fill="#1E1E1E" fill-opacity="0.5"/>
</svg>
